:version 1.10
:name ASF
:units
  mass 1
  length 1
  angle deg
:documentation
  ASF file generated by Kaydara
:root
  axis xyz
  order  tx ty tz rx ry rz
  position 0 0 0
  orientation 0 0 0
:bonedata
  begin
    id 1
    name SpineDummy
    direction 0.999998 -0.00179978 1.38929e-006
    length 3.60008
    axis 0 0 0 xyz
  end
  begin
    id 2
    name Spine
    direction 0.964365 0.262802 0.0305839
    length 8.13928
    axis 1.33928 -1.75354 15.2838 xyz
    dof rx ry rz
  end
  begin
    id 3
    name Spine1
    direction 0.811168 0.572065 0.12144
    length 7.14954
    axis 2.2224 -6.9761 35.2157 xyz
    dof rx ry rz
  end
  begin
    id 4
    name Neck
    direction 0 0 0
    length 0
    axis 2.2224 -6.9761 35.2157 xyz
    dof rx ry rz
  end
  begin
    id 5
    name HeadDummy
    direction 0.810939 0.572387 0.121455
    length 3.55534
    axis 2.2224 -6.9761 35.2157 xyz
  end
  begin
    id 6
    name Head
    direction 0.998226 -0.000232542 0.0595419
    length 7.35666
    axis -3.03688 -3.41352 -0.0133467 xyz
    dof rx ry rz
  end
  begin
    id 7
    name R_ClavicleDummy
    direction 0.531669 -0.194489 -0.824319
    length 2.49392
    axis 2.2224 -6.9761 35.2157 xyz
  end
  begin
    id 8
    name R_Clavicle
    direction -0.155119 0.0480802 -0.986725
    length 4.485
    axis -54.2764 80.6538 162.779 xyz
    dof rx ry rz
  end
  begin
    id 9
    name R_UpperArm
    direction -0.955567 0.200068 -0.216484
    length 10.1122
    axis -72.9943 12.5026 168.175 xyz
    dof rx ry rz
  end
  begin
    id 10
    name R_Forearm
    direction -0.61433 0.385743 0.688332
    length 9.39148
    axis -117.015 -43.4982 147.875 xyz
    dof rx ry rz
  end
  begin
    id 11
    name R_Hand
    direction -0.699429 0.0170333 0.714499
    length 3.66324
    axis -45.0303 -36.7097 175.478 xyz
    dof rx ry rz
  end
  begin
    id 12
    name L_ClavicleDummy
    direction 0.40287 -0.36502 0.839319
    length 2.49392
    axis 2.2224 -6.9761 35.2157 xyz
  end
  begin
    id 13
    name L_Clavicle
    direction -0.231271 -0.0726419 0.970174
    length 4.485
    axis 18.4357 -75.9711 -162.563 xyz
    dof rx ry rz
  end
  begin
    id 14
    name L_UpperArm
    direction -0.917494 0.144359 0.370629
    length 10.1122
    axis 56.0417 -21.7544 171.058 xyz
    dof rx ry rz
  end
  begin
    id 15
    name L_Forearm
    direction -0.496786 0.615074 -0.612281
    length 9.39148
    axis 89.8094 37.7546 128.927 xyz
    dof rx ry rz
  end
  begin
    id 16
    name L_Hand
    direction -0.409932 0.64962 -0.640274
    length 3.66324
    axis -0.424369 32.133 128.52 xyz
    dof rx ry rz
  end
  begin
    id 17
    name L_ThighDummy
    direction -1.84081e-006 1.87549e-006 1
    length 3.13049
    axis 0 0 0 xyz
  end
  begin
    id 18
    name L_Thigh
    direction -0.947739 0.307978 0.083308
    length 17.9961
    axis 173.219 -4.77873 161.998 xyz
    dof rx ry rz
  end
  begin
    id 19
    name L_Calf
    direction -0.728814 -0.684427 0.0197583
    length 13.3367
    axis 167.331 -1.13214 -136.799 xyz
    dof rx ry rz
  end
  begin
    id 20
    name L_Foot
    direction -0.9028 0.418719 0.0981191
    length 5.8674
    axis 163.436 11.5135 -155.37 xyz
    dof rx ry rz
  end
  begin
    id 21
    name L_Toe0
    direction -0.35341 0.886259 0.299411
    length 4.75286
    axis 169.316 -17.4222 111.74 xyz
    dof rx ry rz
  end
  begin
    id 22
    name R_ThighDummy
    direction 9.32778e-007 -8.82053e-007 -1
    length 3.13049
    axis 0 0 0 xyz
  end
  begin
    id 23
    name R_Thigh
    direction -0.925064 0.37528 -0.0585023
    length 17.9961
    axis -178.698 3.35385 157.919 xyz
    dof rx ry rz
  end
  begin
    id 24
    name R_Calf
    direction -0.68969 -0.718776 -0.0876886
    length 13.3367
    axis -160.504 5.03065 -133.817 xyz
    dof rx ry rz
  end
  begin
    id 25
    name R_Foot
    direction -0.857405 0.418858 -0.299022
    length 5.8674
    axis -161.328 4.38911 -154.413 xyz
    dof rx ry rz
  end
  begin
    id 26
    name R_Toe0
    direction -0.100745 0.952789 -0.286433
    length 4.75286
    axis 171.683 16.6445 96.0359 xyz
    dof rx ry rz
  end
:hierarchy
  begin
    root SpineDummy L_ThighDummy R_ThighDummy
    SpineDummy Spine
    Spine Spine1
    Spine1 Neck
    Neck HeadDummy R_ClavicleDummy L_ClavicleDummy
    HeadDummy Head
    R_ClavicleDummy R_Clavicle
    R_Clavicle R_UpperArm
    R_UpperArm R_Forearm
    R_Forearm R_Hand
    L_ClavicleDummy L_Clavicle
    L_Clavicle L_UpperArm
    L_UpperArm L_Forearm
    L_Forearm L_Hand
    L_ThighDummy L_Thigh
    L_Thigh L_Calf
    L_Calf L_Foot
    L_Foot L_Toe0
    R_ThighDummy R_Thigh
    R_Thigh R_Calf
    R_Calf R_Foot
    R_Foot R_Toe0
  end

:SAMPLES-PER-SECOND 30
:FULLY-SPECIFIED
:DEGREES
384
root  4.09835 30.9531 1.38601 -73.891 9.93129 94.5913
Spine  -3.28917 15.432 8.40228
Spine1  -3.97915 -22.5224 -19.8193
Neck  3.97569e-016 0 -2.38542e-015
Head  -21.0895 13.0446 8.9208
R_Clavicle  14.9855 48.2756 26.4909
R_UpperArm  -17.605 49.295 -91.5219
R_Forearm  -33.4543 -8.8054 7.36735
R_Hand  -1.23825 7.19762 -20.7311
L_Clavicle  1.35922 -4.48153 -6.89377
L_UpperArm  -16.1366 -11.2855 -44.1796
L_Forearm  12.0821 18.7032 23.0055
L_Hand  -0.312444 2.5864 -4.24849
L_Thigh  -20.9491 -12.5854 -6.36177
L_Calf  6.57585 -1.48635 10.5699
L_Foot  7.65713 14.5379 11.7102
L_Toe0  11.8281 -3.76812 10.0218
R_Thigh  0.132127 10.3301 26.9356
R_Calf  0.534774 10.7657 35.9581
R_Foot  0.514325 2.15288 1.18585
R_Toe0  -1.78853 -0.272783 -17.3235
385
root  4.83212 29.8564 1.92388 -68.6411 9.72905 95.6364
Spine  -5.36826 15.501 8.86113
Spine1  -7.22901 -16.9027 -21.1598
Neck  3.97569e-016 0 -2.38542e-015
Head  -18.5338 11.8795 8.16338
R_Clavicle  14.5374 46.9543 26.2066
R_UpperArm  -17.9387 52.9008 -89.968
R_Forearm  -32.1466 -4.28419 3.54214
R_Hand  -1.32546 6.96635 -21.4477
L_Clavicle  1.36093 -5.16808 -6.60005
L_UpperArm  -17.8735 -14.9408 -45.2104
L_Forearm  10.9518 17.3381 21.1205
L_Hand  -0.388094 2.06817 -5.66987
L_Thigh  -17.0755 -13.8824 -9.5575
L_Calf  0.704827 -2.12749 15.299
L_Foot  15.9881 18.9683 29.1404
L_Toe0  0.752521 -0.0590129 2.75984
R_Thigh  -1.01346 11.2581 31.0634
R_Calf  2.71367 10.8279 35.7312
R_Foot  -0.808128 -3.54754 -1.43874
R_Toe0  -1.78853 -0.272775 -17.3235
386
root  5.34492 29.0229 2.09595 -64.1505 7.4298 95.026
Spine  -6.47906 14.2721 10.0364
Spine1  -9.54831 -10.7261 -20.7073
Neck  3.97569e-016 0 -2.38542e-015
Head  -17.6031 10.2166 7.63764
R_Clavicle  11.7671 44.9478 22.1282
R_UpperArm  -10.9435 57.0268 -78.264
R_Forearm  -29.5138 1.93077 -1.63261
R_Hand  -1.27661 6.39884 -21.0644
L_Clavicle  1.38456 -2.97766 -7.81482
L_UpperArm  -17.3098 -19.501 -43.937
L_Forearm  9.51635 16.4427 19.9121
L_Hand  -0.474679 1.1333 -7.95873
L_Thigh  -9.85565 -14.5294 -9.15084
L_Calf  -3.72191 -1.29348 9.03557
L_Foot  16.4888 14.902 35.0164
L_Toe0  0.203981 -0.00605393 -0.476345
R_Thigh  -5.89177 12.0382 32.122
R_Calf  1.13198 9.15521 30.8811
R_Foot  0.267838 -3.95284 -9.63915
R_Toe0  -1.78853 -0.272766 -17.3235
387
root  5.50696 28.3738 1.71121 -63.4672 3.34538 93.4312
Spine  -5.72265 12.8747 9.52231
Spine1  -9.00012 -6.80127 -16.7038
Neck  3.97569e-016 0 -2.38542e-015
Head  -18.4835 8.8434 9.61263
R_Clavicle  6.30863 37.4005 13.8585
R_UpperArm  4.24178 54.6612 -56.2221
R_Forearm  -25.1584 10.962 -9.29067
R_Hand  -1.00183 5.80401 -18.5448
L_Clavicle  1.59977 -1.73907 -9.96021
L_UpperArm  -18.589 -22.3502 -41.1235
L_Forearm  9.90619 16.4129 19.8716
L_Hand  -0.497562 0.0444436 -10.0397
L_Thigh  -7.14104 -14.1493 -9.75143
L_Calf  -5.75583 0.145613 -1.43402
L_Foot  13.789 11.0641 33.5639
L_Toe0  2.40619 -0.522071 4.20906
R_Thigh  -9.03213 13.9337 30.1025
R_Calf  -1.3331 7.99452 26.0113
R_Foot  1.33408 -2.50563 -15.3096
R_Toe0  -1.78853 -0.272758 -17.3235
388
root  5.31299 28.0075 0.690939 -64.1397 -1.8004 91.5872
Spine  -5.8821 10.2729 5.50212
Spine1  -8.31247 -1.10765 -9.21997
Neck  3.97569e-016 0 -2.38542e-015
Head  -16.5621 7.38238 16.6688
R_Clavicle  0.536778 27.0879 2.08883
R_UpperArm  18.5358 44.0638 -35.263
R_Forearm  -16.1949 20.3422 -17.971
R_Hand  -0.740191 6.07821 -16.2917
L_Clavicle  0.988372 1.22887 -7.82976
L_UpperArm  -20.5146 -22.2614 -37.7593
L_Forearm  9.41227 17.1513 20.8646
L_Hand  -0.483146 -0.613661 -11.069
L_Thigh  -8.54464 -11.6479 -13.7464
L_Calf  -4.65895 1.15392 -8.77096
L_Foot  11.2253 9.64481 28.5496
L_Toe0  3.8223 -1.58106 12.6957
R_Thigh  -7.83698 15.6334 26.1431
R_Calf  -0.522696 6.42401 20.5829
R_Foot  1.1213 -2.81365 -14.1351
R_Toe0  -1.78853 -0.272754 -17.3235
389
root  4.82111 27.9103 -0.784766 -62.299 -6.46678 89.059
Spine  -7.80596 6.41264 -2.33591
Spine1  -8.32813 5.61598 0.977788
Neck  3.97569e-016 0 -2.38542e-015
Head  -14.4039 5.63536 26.3106
R_Clavicle  0.543582 14.9495 3.98786
R_UpperArm  27.4052 29.0929 -18.541
R_Forearm  -0.306629 27.0542 -25.1358
R_Hand  -0.77731 6.17539 -16.6252
L_Clavicle  0.452565 2.52131 -4.38835
L_UpperArm  -24.5019 -19.8976 -34.9146
L_Forearm  5.83913 18.7146 23.0177
L_Hand  -0.50447 -0.537653 -11.3594
L_Thigh  -9.00323 -8.99185 -20.1138
L_Calf  -2.79382 1.56078 -11.7327
L_Foot  9.3315 9.34079 23.3359
L_Toe0  4.01526 -2.37483 18.4797
R_Thigh  -3.97968 14.3764 21.1882
R_Calf  0.588911 4.55117 14.4137
R_Foot  0.552252 -3.53975 -10.8963
R_Toe0  -1.78853 -0.272758 -17.3235
390
root  4.18225 27.8372 -2.419 -58.3903 -9.76308 86.1017
Spine  -9.73127 1.15529 -9.92903
Spine1  -8.41779 12.4758 7.35739
Neck  3.97569e-016 0 -2.38542e-015
Head  -14.2664 2.93976 36.5004
R_Clavicle  -0.95476 0.0119332 -5.8479
R_UpperArm  32.6839 13.7186 0.531567
R_Forearm  19.5851 30.153 -28.8833
R_Hand  -0.89266 4.18095 -17.1011
L_Clavicle  0.241707 5.41213 -4.16269
L_UpperArm  -28.5551 -16.6274 -28.909
L_Forearm  -0.461834 20.5867 25.6979
L_Hand  -0.58772 -0.0269061 -11.9964
L_Thigh  -6.98336 -7.29108 -27.0439
L_Calf  -2.14457 1.60791 -12.0557
L_Foot  8.14657 8.76268 20.4036
L_Toe0  3.32361 -2.20481 19.3278
R_Thigh  1.64598 10.9106 16.242
R_Calf  -0.968629 2.57501 8.13858
R_Foot  -0.17814 -4.49041 -7.2886
R_Toe0  -1.78911 -0.272952 -17.3293
391
root  3.5873 27.615 -4.03886 -55.4521 -12.1598 83.8966
Spine  -11.3292 -5.406 -18.0885
Spine1  -8.02834 19.6618 14.4599
Neck  3.97569e-016 0 -2.38542e-015
Head  -13.5378 -0.770121 43.3547
R_Clavicle  0.121033 -13.2945 -1.27224
R_UpperArm  34.3573 2.05073 18.7906
R_Forearm  41.9074 30.6141 -29.4704
R_Hand  -0.835471 1.95576 -15.3395
L_Clavicle  -0.0502185 8.8409 -3.11221
L_UpperArm  -33.1228 -14.821 -23.1335
L_Forearm  -5.26793 21.8711 27.6113
L_Hand  -0.737629 0.660114 -13.3565
L_Thigh  -4.97225 -5.26409 -33.7762
L_Calf  -1.35763 1.42935 -10.7139
L_Foot  7.08803 7.12778 19.2069
L_Toe0  3.10636 -2.24039 20.33
R_Thigh  7.64875 8.36844 11.9871
R_Calf  -1.19331 0.648459 2.12673
R_Foot  -1.37816 -5.24972 -0.790707
R_Toe0  -1.79893 -0.271511 -17.2908
392
root  3.16701 27.2025 -5.55129 -54.2032 -13.9285 82.8164
Spine  -12.4568 -12.1619 -24.8325
Spine1  -7.601 26.5403 19.9361
Neck  3.97569e-016 0 -2.38542e-015
Head  -11.9886 -5.28707 48.9886
R_Clavicle  0.382093 -20.2288 0.331402
R_UpperArm  34.3885 -8.65456 36.8551
R_Forearm  63.1997 30.6216 -29.4782
R_Hand  -0.747913 0.889875 -13.2397
L_Clavicle  -0.362837 13.2067 -0.460373
L_UpperArm  -38.2493 -13.9532 -17.2642
L_Forearm  -6.6434 21.9675 27.758
L_Hand  -0.881338 1.2175 -14.6112
L_Thigh  -4.83064 -2.52989 -39.8379
L_Calf  -0.0515322 1.10892 -8.32484
L_Foot  6.97036 5.90247 20.5795
L_Toe0  2.62782 -2.11073 21.2327
R_Thigh  12.3784 7.73885 9.28057
R_Calf  2.42241 -1.07115 -3.23447
R_Foot  -2.22386 -4.5183 5.80784
R_Toe0  -1.6132 -0.26165 -16.8826
393
root  2.93436 26.5748 -6.8228 -53.4256 -14.4504 82.272
Spine  -12.8984 -18.7117 -29.2188
Spine1  -7.70268 32.9442 21.1221
Neck  3.97569e-016 0 -2.38542e-015
Head  -11.9221 -8.66174 54.7934
R_Clavicle  0.448165 -24.0232 0.622434
R_UpperArm  34.1804 -19.3618 57.4501
R_Forearm  76.2829 31.0109 -29.9813
R_Hand  -0.770262 0.314354 -12.9866
L_Clavicle  -0.472855 18.156 1.98814
L_UpperArm  -42.6307 -13.5636 -11.4872
L_Forearm  -6.55685 21.2708 26.7103
L_Hand  -0.924412 1.33262 -15.071
L_Thigh  -5.19062 -0.280633 -43.8422
L_Calf  1.41548 0.944022 -7.08634
L_Foot  7.35475 4.89788 23.5183
L_Toe0  2.14112 -1.83211 21.0666
R_Thigh  14.9551 7.90686 8.93973
R_Calf  6.72186 -2.77656 -8.5292
R_Foot  -2.51747 -3.22336 10.6144
R_Toe0  -1.18503 -0.25592 -16.4669
